<svg width="265" height="226" viewBox="0 0 265 226" fill="none" xmlns="http://www.w3.org/2000/svg">
<path d="M107.771 2.05032C105.045 8.20764 95.1982 53.9178 94.9448 81.3087C67.272 75.098 15.601 71.1372 9.96222 72.1418C7.8644 73.5283 3.28157 95.6137 1.3175 105.079C13.91 114.179 69.0811 127.442 95.0926 132.935C93.9169 147.324 103.378 206.407 108.63 224.715C119.253 225.861 158.069 221.983 172.888 220.356C177.604 206.349 171.029 150.804 172.993 141.338C180.075 142.102 243.545 132.82 255.477 127.656L263.333 89.7954C250.848 87.1583 196.055 82.5383 170.614 83.0196C171.79 68.6309 165.482 29.2424 157.999 4.24262C156.844 2.82782 122.59 0.42308 107.771 2.05032Z" fill="black" stroke="white" stroke-width="2"/>
</svg>
