<svg width="359" height="334" viewBox="0 0 359 334" fill="none" xmlns="http://www.w3.org/2000/svg">
<path d="M159.771 58.0503C157.045 64.2076 147.198 109.918 146.945 137.309C119.272 131.098 67.601 127.137 61.9622 128.142C59.8644 129.528 55.2816 151.614 53.3175 161.079C65.91 170.179 121.081 183.442 147.093 188.935C145.917 203.324 155.378 262.407 160.63 280.715C171.253 281.861 210.069 277.983 224.888 276.356C229.604 262.349 223.029 206.804 224.993 197.338C232.075 198.102 295.545 188.82 307.477 183.656L315.333 145.795C302.848 143.158 248.055 138.538 222.614 139.02C223.79 124.631 217.482 85.2424 209.999 60.2426C208.844 58.8278 174.59 56.4231 159.771 58.0503Z" fill="black" stroke="white" stroke-width="2"/>
<g filter="url(#filter0_d_17_353)">
<mask id="path-2-inside-1_17_353" fill="white">
<path fill-rule="evenodd" clip-rule="evenodd" d="M184 326C298.5 326 355 268.255 355 159.028C355 57 294.181 0 184 0C73.8192 0 4 71.1991 4 159.028C4 246.856 51 326 184 326ZM231.246 249.622C280.41 219.205 296.486 156.112 267.153 108.699C237.82 61.2859 174.184 47.508 125.02 77.9251C75.8557 108.342 59.7795 171.436 89.1129 218.849C118.446 266.262 182.081 280.039 231.246 249.622Z"/>
</mask>
<path fill-rule="evenodd" clip-rule="evenodd" d="M184 326C298.5 326 355 268.255 355 159.028C355 57 294.181 0 184 0C73.8192 0 4 71.1991 4 159.028C4 246.856 51 326 184 326ZM231.246 249.622C280.41 219.205 296.486 156.112 267.153 108.699C237.82 61.2859 174.184 47.508 125.02 77.9251C75.8557 108.342 59.7795 171.436 89.1129 218.849C118.446 266.262 182.081 280.039 231.246 249.622Z" fill="#DC143C"/>
<path d="M267.153 108.699L266.303 109.225L266.303 109.225L267.153 108.699ZM231.246 249.622L230.72 248.772L230.72 248.772L231.246 249.622ZM125.02 77.9251L124.494 77.0747L124.494 77.0747L125.02 77.9251ZM89.1129 218.849L88.2625 219.375L88.2625 219.375L89.1129 218.849ZM354 159.028C354 213.478 339.919 254.923 311.735 282.763C283.549 310.604 241.094 325 184 325V327C241.406 327 284.451 312.523 313.14 284.185C341.831 255.845 356 213.804 356 159.028H354ZM184 1C238.928 1 281.401 15.2072 310.136 41.985C338.861 68.7528 354 108.215 354 159.028H356C356 107.813 340.73 67.761 311.5 40.5219C282.28 13.2928 239.253 -1 184 -1V1ZM5 159.028C5 71.8267 74.293 1 184 1V-1C73.3454 -1 3 70.5714 3 159.028H5ZM184 325C117.703 325 72.9998 305.281 44.8601 274.771C16.7055 244.246 5 202.776 5 159.028H3C3 203.108 14.7945 245.124 43.3899 276.127C72.0002 307.147 117.297 327 184 327V325ZM266.303 109.225C295.328 156.139 279.444 218.627 230.72 248.772L231.772 250.473C281.377 219.783 297.645 156.084 268.003 108.173L266.303 109.225ZM125.546 78.7755C174.27 48.6308 237.278 62.3105 266.303 109.225L268.003 108.173C238.362 60.2613 174.099 46.3852 124.494 77.0747L125.546 78.7755ZM89.9633 218.323C60.9383 171.408 76.8221 108.92 125.546 78.7755L124.494 77.0747C74.8892 107.764 58.6207 171.463 88.2625 219.375L89.9633 218.323ZM230.72 248.772C181.996 278.917 118.988 265.237 89.9633 218.323L88.2625 219.375C117.904 267.286 182.167 281.162 231.772 250.473L230.72 248.772Z" fill="black" mask="url(#path-2-inside-1_17_353)"/>
</g>
<defs>
<filter id="filter0_d_17_353" x="0" y="0" width="359" height="334" filterUnits="userSpaceOnUse" color-interpolation-filters="sRGB">
<feFlood flood-opacity="0" result="BackgroundImageFix"/>
<feColorMatrix in="SourceAlpha" type="matrix" values="0 0 0 0 0 0 0 0 0 0 0 0 0 0 0 0 0 0 127 0" result="hardAlpha"/>
<feOffset dy="4"/>
<feGaussianBlur stdDeviation="2"/>
<feComposite in2="hardAlpha" operator="out"/>
<feColorMatrix type="matrix" values="0 0 0 0 0 0 0 0 0 0 0 0 0 0 0 0 0 0 0.25 0"/>
<feBlend mode="normal" in2="BackgroundImageFix" result="effect1_dropShadow_17_353"/>
<feBlend mode="normal" in="SourceGraphic" in2="effect1_dropShadow_17_353" result="shape"/>
</filter>
</defs>
</svg>
